<?xml version="1.0" encoding="UTF-8" standalone="no"?>
<!-- Created with Inkscape (http://www.inkscape.org/) -->

<svg
   xmlns:dc="http://purl.org/dc/elements/1.1/"
   xmlns:cc="http://creativecommons.org/ns#"
   xmlns:rdf="http://www.w3.org/1999/02/22-rdf-syntax-ns#"
   xmlns:svg="http://www.w3.org/2000/svg"
   xmlns="http://www.w3.org/2000/svg"
   xmlns:sodipodi="http://sodipodi.sourceforge.net/DTD/sodipodi-0.dtd"
   xmlns:inkscape="http://www.inkscape.org/namespaces/inkscape"
   id="svg2"
   version="1.1"
   inkscape:version="0.91 r13725"
   width="28.125"
   height="28.125"
   viewBox="0 0 28.125 28.125"
   sodipodi:docname="mais.svg"
   inkscape:export-filename="/var/www/html/syscad/assets/img/icons/mais.png"
   inkscape:export-xdpi="90"
   inkscape:export-ydpi="90">
  <metadata
     id="metadata8">
    <rdf:RDF>
      <cc:Work
         rdf:about="">
        <dc:format>image/svg+xml</dc:format>
        <dc:type
           rdf:resource="http://purl.org/dc/dcmitype/StillImage" />
        <dc:title />
      </cc:Work>
    </rdf:RDF>
  </metadata>
  <defs
     id="defs6" />
  <sodipodi:namedview
     pagecolor="#ffffff"
     bordercolor="#666666"
     borderopacity="1"
     objecttolerance="10"
     gridtolerance="10"
     guidetolerance="10"
     inkscape:pageopacity="0"
     inkscape:pageshadow="2"
     inkscape:window-width="1301"
     inkscape:window-height="744"
     id="namedview4"
     showgrid="false"
     inkscape:zoom="11.313709"
     inkscape:cx="1.2224415"
     inkscape:cy="6.2145898"
     inkscape:window-x="65"
     inkscape:window-y="24"
     inkscape:window-maximized="1"
     inkscape:current-layer="svg2" />
  <circle
     style="opacity:0.981;fill:#b3b3b3;fill-opacity:1;fill-rule:nonzero;stroke:none;stroke-width:1;stroke-miterlimit:3.25;stroke-dasharray:none;stroke-opacity:1"
     id="path4138"
     cx="13.786649"
     cy="14.287746"
     r="13.061625" />
  <path
     style="opacity:0.981;fill:#ffffff;fill-opacity:1;fill-rule:nonzero;stroke:none;stroke-width:1;stroke-miterlimit:3.25;stroke-dasharray:none;stroke-opacity:1"
     d="m 14.049563,6.1777866 c -0.64182,0 -1.157743,0.5159227 -1.157743,1.1577427 l 0,5.6549507 -6.0700775,0.07611 c -0.6417712,0.0079 -1.1518082,0.529808 -1.1439052,1.171579 0.00792,0.641772 0.5298086,1.15181 1.1715798,1.143907 l 6.0424029,-0.0738 0,5.929394 c 0,0.641819 0.515923,1.160048 1.157743,1.160048 0.64182,0 1.157743,-0.518229 1.157743,-1.160048 l 0,-5.95707 5.544248,-0.06919 c 0.641771,-0.0079 1.151809,-0.532116 1.143906,-1.173887 -0.0079,-0.641771 -0.532116,-1.151809 -1.173887,-1.143906 l -5.514267,0.06919 0,-5.6272754 c 0,-0.6418199 -0.515923,-1.1577427 -1.157743,-1.1577427 z"
     id="rect4140"
     inkscape:connector-curvature="0"
     inkscape:transform-center-x="-33.210148"
     inkscape:transform-center-y="-13.227766" />
</svg>
